<?xml version="1.0" standalone="no"?>
<!DOCTYPE svg PUBLIC "-//W3C//DTD SVG 20010904//EN"
 "http://www.w3.org/TR/2001/REC-SVG-20010904/DTD/svg10.dtd">
<svg version="1.0" xmlns="http://www.w3.org/2000/svg"
 width="225.000000pt" height="225.000000pt" viewBox="0 0 225.000000 225.000000"
 preserveAspectRatio="xMidYMid meet">

<g transform="translate(0.000000,225.000000) scale(0.100000,-0.100000)"
fill="#000000" stroke="none">
<path d="M805 1455 c-34 -33 -34 -93 -1 -132 l24 -28 29 27 c24 23 35 26 64
22 33 -6 37 -4 43 20 8 32 -15 91 -42 105 -37 20 -91 13 -117 -14z"/>
<path d="M1286 1455 c-23 -21 -27 -32 -24 -68 3 -41 4 -42 40 -42 24 0 44 -8
62 -24 22 -21 28 -22 42 -10 10 8 23 29 31 47 11 27 11 37 -1 66 -26 61 -101
77 -150 31z"/>
<path d="M870 1128 c0 -51 30 -122 68 -161 48 -51 99 -71 177 -71 78 0 129 20
177 71 38 40 68 110 68 162 0 51 -3 51 -110 4 -94 -41 -189 -39 -284 5 -91 42
-96 42 -96 -10z"/>
</g>
</svg>
