<?xml version="1.0" standalone="no"?>
<!DOCTYPE svg PUBLIC "-//W3C//DTD SVG 20010904//EN"
 "http://www.w3.org/TR/2001/REC-SVG-20010904/DTD/svg10.dtd">
<svg version="1.0" xmlns="http://www.w3.org/2000/svg"
 width="698.000000pt" height="656.000000pt" viewBox="0 0 698.000000 656.000000"
 preserveAspectRatio="xMidYMid meet">

<g transform="translate(0.000000,656.000000) scale(0.100000,-0.100000)"
fill="#000000" stroke="none">
<path d="M5610 4723 c-79 -10 -270 -77 -256 -90 3 -3 20 1 38 10 42 20 124 42
214 57 72 13 173 10 289 -9 33 -6 61 -8 63 -7 1 2 -19 10 -45 19 -49 15 -239
28 -303 20z"/>
<path d="M5975 4670 c7 -11 45 -20 45 -10 0 4 -11 10 -25 12 -13 3 -22 2 -20
-2z"/>
<path d="M1218 4605 c-16 -9 -37 -38 -53 -71 -15 -31 -50 -80 -77 -107 -74
-74 -93 -122 -93 -233 1 -86 21 -170 47 -199 12 -14 28 13 28 48 0 38 21 43
75 17 28 -14 76 -25 126 -29 92 -8 95 -10 150 -118 23 -46 40 -106 65 -240 85
-439 114 -514 259 -658 49 -50 115 -111 145 -137 l56 -46 12 -108 c22 -184 24
-194 48 -230 35 -52 32 -98 -10 -140 -29 -29 -41 -34 -83 -34 -27 0 -90 7
-140 15 l-90 16 -68 -33 c-76 -36 -100 -65 -45 -53 27 6 37 2 61 -21 16 -15
29 -34 29 -41 0 -16 5 -16 29 -1 15 9 25 9 46 0 37 -17 60 -15 105 8 71 36
210 57 210 31 0 -4 -9 -14 -20 -24 -31 -26 -24 -35 26 -29 25 2 63 -1 84 -8
36 -12 44 -11 97 13 52 23 92 31 131 28 22 -2 3 -19 -28 -26 -32 -7 -50 -30
-50 -63 0 -16 9 -21 46 -27 44 -6 49 -4 83 28 45 43 62 52 133 66 47 10 62 10
93 -3 49 -21 61 -20 96 5 18 13 36 18 49 14 42 -13 18 17 -32 40 -43 20 -62
23 -108 18 -53 -5 -59 -4 -93 27 -41 35 -45 51 -20 71 21 18 43 71 57 139 l11
55 45 -2 c46 -2 213 -26 305 -44 114 -22 121 -26 168 -92 50 -69 133 -152 163
-160 102 -28 196 -48 215 -45 19 2 10 12 -54 62 -43 32 -77 61 -77 65 0 5 -18
13 -39 20 -22 6 -64 30 -93 53 -84 66 -86 79 -11 54 26 -9 69 -19 95 -22 39
-6 49 -4 54 10 10 27 -13 91 -52 142 -20 25 -58 90 -86 143 -27 53 -60 107
-72 121 -28 30 -106 148 -106 159 0 16 -31 35 -38 24 -4 -5 -30 -10 -58 -11
-46 -1 -55 3 -85 34 -31 32 -59 44 -59 26 0 -4 18 -26 40 -47 27 -26 40 -47
39 -65 0 -14 2 -35 6 -47 9 -29 -8 -30 -54 -2 -18 11 -59 29 -90 40 -31 11
-68 27 -83 35 -34 18 -38 18 -38 -6 0 -11 -3 -20 -7 -20 -21 1 -100 34 -118
49 -11 10 -34 23 -52 30 -17 7 -39 21 -49 32 -9 10 -26 19 -37 19 -26 0 -168
71 -227 113 -25 18 -67 53 -95 79 -69 64 -134 114 -175 137 -20 10 -51 42 -70
70 -35 51 -50 62 -50 39 0 -12 28 -127 46 -188 5 -18 -4 -10 -31 25 -21 28
-51 65 -67 83 -18 21 -28 44 -28 65 0 18 -16 77 -36 132 -20 55 -39 123 -43
150 -4 28 -12 59 -18 70 -6 11 -13 37 -17 58 -10 52 -58 102 -135 142 -87 44
-126 84 -167 172 -40 86 -45 150 -14 178 11 10 20 24 20 30 0 7 9 24 20 38 25
31 26 75 3 93 -23 17 -41 17 -75 -1z m622 -1360 c-1 -5 -7 -1 -15 9 -8 11 -15
34 -15 50 1 30 1 30 15 -9 8 -22 15 -44 15 -50z m447 -636 c7 -13 26 -58 43
-99 20 -47 44 -87 66 -106 19 -17 34 -40 34 -50 0 -49 -58 -84 -140 -84 -29 0
-38 6 -52 31 -17 30 -19 30 -72 24 -48 -6 -55 -5 -65 13 -20 38 -13 59 26 79
42 20 83 85 109 171 17 56 31 62 51 21z"/>
<path d="M5636 4579 c-179 -36 -339 -141 -567 -371 -96 -97 -229 -273 -229
-303 0 -7 -9 -20 -20 -30 -11 -10 -20 -23 -20 -28 0 -15 -107 -117 -114 -110
-3 4 -6 26 -6 50 0 45 -11 53 -37 27 -12 -11 -13 -18 -4 -27 12 -12 14 -58 5
-94 -4 -15 -30 -34 -80 -60 -123 -61 -359 -264 -458 -393 -89 -115 -135 -228
-103 -246 10 -6 17 -27 19 -54 l3 -45 32 65 c47 98 126 205 227 306 140 140
320 266 359 251 8 -3 23 -32 32 -64 61 -212 231 -386 455 -467 36 -13 72 -26
81 -30 12 -5 19 1 27 21 17 43 24 109 17 143 -7 30 -8 30 -62 28 l-55 -2 -77
79 c-80 84 -134 176 -146 250 l-7 40 21 -37 c12 -21 21 -45 21 -53 0 -20 124
-145 176 -178 22 -14 52 -39 68 -56 43 -45 60 -41 52 11 -8 51 -13 58 -36 58
-33 0 -104 44 -155 96 -54 53 -110 153 -96 167 16 16 95 -28 159 -88 66 -61
78 -56 41 16 -11 22 -18 46 -16 52 2 6 -28 43 -67 83 -112 113 -112 113 -89
134 10 10 27 20 38 21 50 7 191 -45 201 -73 3 -10 10 -18 15 -18 5 0 37 -29
71 -65 61 -64 88 -82 69 -47 -5 9 -46 55 -91 101 -70 71 -95 89 -173 126 -51
23 -105 45 -120 49 -41 10 -44 32 -12 93 55 106 190 262 310 358 27 22 59 48
70 58 38 35 180 106 245 122 105 27 237 6 332 -53 55 -34 125 -114 156 -177
39 -80 53 -143 52 -234 -2 -100 -3 -96 18 -71 l17 21 34 -47 c29 -41 33 -54
29 -94 -6 -58 -65 -175 -129 -256 -70 -89 -243 -251 -337 -318 -97 -68 -193
-110 -234 -102 -25 5 -28 3 -28 -22 0 -15 -3 -51 -7 -80 l-6 -52 89 31 c162
57 281 138 467 318 273 263 382 506 332 736 -36 167 -90 271 -192 371 -151
147 -357 206 -567 163z m-1219 -1132 c-29 -23 -87 -76 -202 -187 -37 -36 -64
-58 -59 -50 20 36 108 126 188 194 27 22 54 46 60 53 6 7 18 12 26 12 9 0 5
-8 -13 -22z"/>
<path d="M1353 4541 c-43 -27 -52 -70 -22 -110 58 -79 146 -55 174 47 5 16 -1
30 -24 52 -35 36 -80 40 -128 11z"/>
<path d="M1970 4306 c0 -9 5 -16 10 -16 6 0 10 4 10 9 0 6 -4 13 -10 16 -5 3
-10 -1 -10 -9z"/>
<path d="M2020 4222 c0 -5 7 -15 15 -22 8 -7 15 -8 15 -2 0 5 -7 15 -15 22 -8
7 -15 8 -15 2z"/>
<path d="M5724 3359 c-19 -22 -19 -22 4 -8 12 8 22 17 22 21 0 12 -6 9 -26
-13z"/>
<path d="M5600 3284 c-52 -27 -90 -31 -90 -10 0 8 -4 17 -9 20 -5 3 -2 -21 7
-54 9 -33 19 -60 23 -60 3 0 11 11 17 25 6 13 29 36 51 49 69 44 70 66 1 30z"/>
<path d="M5477 2922 c-5 -7 -16 -11 -24 -10 -17 3 -23 -4 -143 -168 -66 -90
-205 -237 -315 -333 -180 -157 -347 -230 -540 -238 -131 -6 -213 10 -322 63
-84 40 -207 139 -254 203 -46 64 -88 160 -99 225 -13 83 -33 108 -25 31 30
-290 217 -524 487 -610 274 -87 549 -8 828 237 209 184 346 359 405 519 17 47
18 107 2 81z"/>
<path d="M4133 2447 c4 -10 7 -21 7 -23 0 -2 6 -4 13 -4 7 0 18 -9 25 -20 7
-11 18 -20 25 -20 7 0 29 -11 49 -25 36 -25 127 -50 150 -43 6 2 -18 14 -53
27 -74 26 -163 74 -198 105 -21 18 -23 19 -18 3z"/>
<path d="M4438 2313 c12 -2 30 -2 40 0 9 3 -1 5 -23 4 -22 0 -30 -2 -17 -4z"/>
</g>
</svg>
